<svg width="1600" height="520" viewBox="0 0 1600 520" fill="none" xmlns="http://www.w3.org/2000/svg" role="img" aria-labelledby="title desc">
  <title id="title">Epheon banner</title>
  <desc id="desc">A dark space-themed banner with deep black cosmos, stars, orbital lines, and the Epheon logotype.</desc>
  <defs>
    <linearGradient id="bg" x1="180" y1="40" x2="1420" y2="480" gradientUnits="userSpaceOnUse">
      <stop stop-color="#020409"/>
      <stop offset="0.45" stop-color="#050913"/>
      <stop offset="1" stop-color="#0A1220"/>
    </linearGradient>
    <radialGradient id="nebulaLeft" cx="0" cy="0" r="1" gradientUnits="userSpaceOnUse" gradientTransform="translate(290 142) rotate(18) scale(360 250)">
      <stop stop-color="#5B84FF" stop-opacity="0.22"/>
      <stop offset="0.42" stop-color="#264CBA" stop-opacity="0.12"/>
      <stop offset="1" stop-color="#264CBA" stop-opacity="0"/>
    </radialGradient>
    <radialGradient id="nebulaRight" cx="0" cy="0" r="1" gradientUnits="userSpaceOnUse" gradientTransform="translate(1370 370) rotate(-18) scale(340 240)">
      <stop stop-color="#7DD3FC" stop-opacity="0.12"/>
      <stop offset="0.56" stop-color="#1D4ED8" stop-opacity="0.06"/>
      <stop offset="1" stop-color="#1D4ED8" stop-opacity="0"/>
    </radialGradient>
    <radialGradient id="sunGlow" cx="0" cy="0" r="1" gradientUnits="userSpaceOnUse" gradientTransform="translate(354 188) scale(148)">
      <stop stop-color="#FFF3D2" stop-opacity="0.95"/>
      <stop offset="0.2" stop-color="#FFD98B" stop-opacity="0.9"/>
      <stop offset="0.5" stop-color="#F5A646" stop-opacity="0.24"/>
      <stop offset="1" stop-color="#F5A646" stop-opacity="0"/>
    </radialGradient>
    <linearGradient id="orbit" x1="164" y1="74" x2="636" y2="338" gradientUnits="userSpaceOnUse">
      <stop stop-color="#F8D591"/>
      <stop offset="1" stop-color="#C88133"/>
    </linearGradient>
    <linearGradient id="accent" x1="980" y1="148" x2="1454" y2="354" gradientUnits="userSpaceOnUse">
      <stop stop-color="#6AA8FF"/>
      <stop offset="1" stop-color="#D8EEFF"/>
    </linearGradient>
    <filter id="blurLg" x="-40%" y="-40%" width="180%" height="180%" color-interpolation-filters="sRGB">
      <feGaussianBlur stdDeviation="22"/>
    </filter>
    <filter id="blurMd" x="-40%" y="-40%" width="180%" height="180%" color-interpolation-filters="sRGB">
      <feGaussianBlur stdDeviation="10"/>
    </filter>
  </defs>

  <rect width="1600" height="520" rx="28" fill="url(#bg)"/>
  <rect x="16" y="16" width="1568" height="488" rx="22" stroke="#E2E8F0" stroke-opacity="0.08" stroke-width="1"/>

  <ellipse cx="290" cy="142" rx="360" ry="250" fill="url(#nebulaLeft)"/>
  <ellipse cx="1370" cy="370" rx="340" ry="240" fill="url(#nebulaRight)"/>
  <ellipse cx="820" cy="500" rx="900" ry="180" fill="#0B1324" fill-opacity="0.28" filter="url(#blurLg)"/>

  <g opacity="0.42">
    <circle cx="90" cy="84" r="1.4" fill="white"/>
    <circle cx="128" cy="132" r="1.1" fill="white"/>
    <circle cx="174" cy="60" r="1.2" fill="white"/>
    <circle cx="238" cy="102" r="1.7" fill="white"/>
    <circle cx="492" cy="58" r="1.1" fill="#DDEAFE"/>
    <circle cx="544" cy="128" r="1.2" fill="white"/>
    <circle cx="720" cy="70" r="1.1" fill="white"/>
    <circle cx="846" cy="110" r="1.5" fill="#E0F2FE"/>
    <circle cx="1012" cy="74" r="1.2" fill="white"/>
    <circle cx="1138" cy="116" r="1.8" fill="#DBEAFE"/>
    <circle cx="1212" cy="88" r="1.1" fill="white"/>
    <circle cx="1302" cy="64" r="1.3" fill="white"/>
    <circle cx="1416" cy="94" r="1.2" fill="#E0F2FE"/>
    <circle cx="1500" cy="140" r="1.1" fill="white"/>
    <circle cx="1456" cy="388" r="1.7" fill="white"/>
    <circle cx="1368" cy="430" r="1.2" fill="#DDEAFE"/>
    <circle cx="1282" cy="446" r="1.1" fill="white"/>
    <circle cx="1186" cy="418" r="1.1" fill="white"/>
    <circle cx="104" cy="398" r="1.1" fill="#DDEAFE"/>
    <circle cx="226" cy="440" r="1.3" fill="white"/>
    <circle cx="330" cy="402" r="1.1" fill="white"/>
  </g>

  <g opacity="0.24">
    <path d="M72 386C246 344 458 332 654 350C904 372 1174 446 1524 330" stroke="#C7D2FE" stroke-width="1.2"/>
    <path d="M88 420C286 378 500 378 690 394C912 412 1172 464 1462 390" stroke="#93C5FD" stroke-width="0.9" stroke-opacity="0.6"/>
    <path d="M96 348C292 292 476 274 724 290C982 308 1248 380 1512 270" stroke="#BFDBFE" stroke-width="1" stroke-opacity="0.46"/>
  </g>

  <g opacity="0.94">
    <circle cx="354" cy="188" r="34" fill="#FFD98B"/>
    <circle cx="354" cy="188" r="136" fill="url(#sunGlow)"/>
    <ellipse cx="420" cy="220" rx="212" ry="144" stroke="url(#orbit)" stroke-width="2.2"/>
    <ellipse cx="420" cy="220" rx="154" ry="104" stroke="#E2B96D" stroke-opacity="0.62" stroke-width="1.4"/>
    <ellipse cx="420" cy="220" rx="102" ry="68" stroke="#E2B96D" stroke-opacity="0.32" stroke-width="1"/>
    <circle cx="608" cy="248" r="8" fill="#F3C77A"/>
    <circle cx="516" cy="112" r="5.5" fill="#FFF6E3"/>
    <circle cx="286" cy="274" r="4.6" fill="#FFE7B3"/>
    <path d="M566 122C592 138 616 162 630 190" stroke="#F3C77A" stroke-opacity="0.22" stroke-width="1.1"/>
  </g>

  <g opacity="0.74">
    <path d="M1034 158H1448" stroke="url(#accent)" stroke-width="1.2"/>
    <path d="M1058 200H1424" stroke="url(#accent)" stroke-width="1" stroke-opacity="0.66"/>
    <path d="M1080 242H1402" stroke="url(#accent)" stroke-width="1" stroke-opacity="0.5"/>
    <path d="M1102 284H1380" stroke="url(#accent)" stroke-width="1" stroke-opacity="0.38"/>
    <path d="M1124 326H1358" stroke="url(#accent)" stroke-width="1" stroke-opacity="0.24"/>
    <path d="M1034 158V326" stroke="url(#accent)" stroke-width="1" stroke-opacity="0.56"/>
    <path d="M1138 158V326" stroke="url(#accent)" stroke-width="1" stroke-opacity="0.4"/>
    <path d="M1242 158V326" stroke="url(#accent)" stroke-width="1" stroke-opacity="0.4"/>
    <path d="M1346 158V326" stroke="url(#accent)" stroke-width="1" stroke-opacity="0.4"/>
    <path d="M1448 158V326" stroke="url(#accent)" stroke-width="1" stroke-opacity="0.4"/>
    <circle cx="1080" cy="200" r="4" fill="#D9F3FF"/>
    <circle cx="1242" cy="242" r="4.8" fill="#A9D8FF"/>
    <circle cx="1346" cy="158" r="3.8" fill="#D9F3FF"/>
    <circle cx="1448" cy="284" r="4" fill="#BFE5FF"/>
    <circle cx="1188" cy="326" r="4" fill="#D9F3FF"/>
  </g>

  <g opacity="0.34">
    <path d="M1004 114L1080 200L1242 242L1346 158L1448 284" stroke="#9FD8FF" stroke-opacity="0.38" stroke-width="1"/>
    <path d="M1034 326L1188 326L1242 242" stroke="#9FD8FF" stroke-opacity="0.26" stroke-width="1"/>
  </g>

  <g filter="url(#blurMd)" opacity="0.18">
    <ellipse cx="982" cy="246" rx="210" ry="90" fill="#1D4ED8"/>
  </g>

  <g opacity="0.97">
    <text x="680" y="214" fill="#F8FAFC" font-family="ui-serif, Georgia, Cambria, 'Times New Roman', serif" font-size="82" font-weight="700" letter-spacing="3">EPHEON</text>
    <text x="682" y="270" fill="#C7D8EA" font-family="ui-sans-serif, system-ui, -apple-system, BlinkMacSystemFont, 'Segoe UI', sans-serif" font-size="22" letter-spacing="7">ASTRONOMICAL CALENDAR ENGINE</text>
    <text x="682" y="334" fill="#E2E8F0" font-family="ui-sans-serif, system-ui, -apple-system, BlinkMacSystemFont, 'Segoe UI', sans-serif" font-size="28" font-weight="500">Black cosmos. Quiet precision. Clear boundaries.</text>
  </g>
</svg>
